<svg xmlns="http://www.w3.org/2000/svg" width="210" height="32.471" viewBox="0 0 210 32.471"><path d="M224.726,49.48h-.306v.548h.359q.262,0,.32-.087a.358.358,0,0,0,.087-.209.233.233,0,0,0-.082-.179.626.626,0,0,0-.354-.068" transform="translate(-115.559 -25.478)" fill="#d31e47"/><path d="M223.542,47.63a1.557,1.557,0,1,0,1.552,1.562v0a1.557,1.557,0,0,0-1.552-1.557m.456,2.5-.359-.723h-.427v.723h-.388v-1.94h.713a1.21,1.21,0,0,1,.412.053.662.662,0,0,1,.247.131.407.407,0,0,1,.121.184.867.867,0,0,1,.029.223.621.621,0,0,1-.073.325.483.483,0,0,1-.262.194l.412.81Z" transform="translate(-114.302 -24.526)" fill="#d31e47"/><path d="M5.04,25.911a2.7,2.7,0,0,0,1.392,2.256,6.3,6.3,0,0,0,2.707.529,5.693,5.693,0,0,0,2.692-.485,1.63,1.63,0,0,0,.81-1.523,1.912,1.912,0,0,0-.485-1.319,3.29,3.29,0,0,0-1.94-.786l-2.707-.456a11.655,11.655,0,0,1-5.336-1.94A4.911,4.911,0,0,1,.412,18.048a5.236,5.236,0,0,1,.621-2.556,5.742,5.742,0,0,1,1.751-1.94,8.827,8.827,0,0,1,2.687-1.222A12.974,12.974,0,0,1,8.916,11.9a13.833,13.833,0,0,1,3.91.485A7.6,7.6,0,0,1,15.4,13.643a5.188,5.188,0,0,1,1.509,1.877,9.815,9.815,0,0,1,.732,2.333l-4.7.6a3.44,3.44,0,0,0-1.188-1.994,4.588,4.588,0,0,0-2.726-.635,7.6,7.6,0,0,0-1.746.165,3.539,3.539,0,0,0-1.091.437,1.58,1.58,0,0,0-.568.6,1.455,1.455,0,0,0-.17.64,1.591,1.591,0,0,0,.587,1.373,5.916,5.916,0,0,0,2.275.732l2.484.412a17.618,17.618,0,0,1,3.4.863,6.576,6.576,0,0,1,2.163,1.3,4.152,4.152,0,0,1,1.13,1.824,8.435,8.435,0,0,1,.32,2.425,5.4,5.4,0,0,1-2.11,4.458q-2.076,1.7-6.481,1.7a17.088,17.088,0,0,1-3.366-.32,8.4,8.4,0,0,1-2.857-1.087A6.3,6.3,0,0,1,.922,29.219,7.034,7.034,0,0,1,0,25.911Z" transform="translate(0 -6.125)" fill="#d31e47"/><path d="M40,12.541h5.011v2.6a6.474,6.474,0,0,1,5.753-3.2A7.087,7.087,0,0,1,56.9,14.724a12.713,12.713,0,0,1,2.023,7.635,14.559,14.559,0,0,1-.582,4.249,9.743,9.743,0,0,1-1.683,3.308,7.6,7.6,0,0,1-2.692,2.125,8.247,8.247,0,0,1-3.57.752,6.026,6.026,0,0,1-2.765-.645,6.656,6.656,0,0,1-2.464-1.989v8.46H40Zm5.122,9.968a11.816,11.816,0,0,0,.32,3.066,4.107,4.107,0,0,0,1.038,1.863A3.723,3.723,0,0,0,48,28.321a5.878,5.878,0,0,0,1.562.209,4.135,4.135,0,0,0,1.654-.34,3.5,3.5,0,0,0,1.392-1.072,5.538,5.538,0,0,0,.922-1.9,10.378,10.378,0,0,0,.335-2.823,11.351,11.351,0,0,0-.315-2.91,5.449,5.449,0,0,0-.888-1.9,3.224,3.224,0,0,0-1.334-1.053,4.214,4.214,0,0,0-1.63-.306A4.366,4.366,0,0,0,46.592,17.3a4.228,4.228,0,0,0-1.111,1.8,9.128,9.128,0,0,0-.359,2.784Z" transform="translate(-20.597 -6.148)" fill="#d31e47"/><path d="M93.776,29.691a8.154,8.154,0,0,1-2.425,2.144,7.467,7.467,0,0,1-3.74.829,8.986,8.986,0,0,1-2.5-.34,5.712,5.712,0,0,1-2.066-1.053,5.1,5.1,0,0,1-1.4-1.843,6.18,6.18,0,0,1-.529-2.653,5.615,5.615,0,0,1,.912-3.289A6.136,6.136,0,0,1,84.4,21.493a12.067,12.067,0,0,1,3.294-1.019,30.062,30.062,0,0,1,3.7-.374l2.314-.112v-.97a2.858,2.858,0,0,0-.97-2.484,4.09,4.09,0,0,0-2.387-.689q-3.119,0-3.575,2.367l-4.812-.427a6.28,6.28,0,0,1,2.707-4.477,10.857,10.857,0,0,1,5.869-1.373,11.827,11.827,0,0,1,3.837.548,6.23,6.23,0,0,1,2.537,1.557,6.032,6.032,0,0,1,1.392,2.464,11.444,11.444,0,0,1,.432,3.255V32.174H93.776Zm-.107-6.282-2.333.116a13.43,13.43,0,0,0-2.668.335,4.8,4.8,0,0,0-1.562.66,1.941,1.941,0,0,0-.732.922,3.418,3.418,0,0,0-.189,1.164,1.9,1.9,0,0,0,.694,1.543,2.835,2.835,0,0,0,1.877.568,5.463,5.463,0,0,0,3.313-.941,3.88,3.88,0,0,0,1.615-3.347Z" transform="translate(-41.766 -6.145)" fill="#d31e47"/><path d="M190.13,25.89a2.7,2.7,0,0,0,1.392,2.256,6.3,6.3,0,0,0,2.707.529,5.693,5.693,0,0,0,2.687-.485,1.63,1.63,0,0,0,.81-1.523,1.912,1.912,0,0,0-.485-1.319,3.29,3.29,0,0,0-1.94-.786l-2.707-.456a11.578,11.578,0,0,1-5.336-1.94,4.929,4.929,0,0,1-1.746-4.157,5.236,5.236,0,0,1,.621-2.556,5.671,5.671,0,0,1,1.746-1.94,8.859,8.859,0,0,1,2.692-1.222,12.938,12.938,0,0,1,3.439-.432,13.834,13.834,0,0,1,3.915.485A7.6,7.6,0,0,1,200.5,13.6a5.17,5.17,0,0,1,1.5,1.877,9.627,9.627,0,0,1,.732,2.333l-4.7.6a3.457,3.457,0,0,0-1.184-1.994,4.777,4.777,0,0,0-2.736-.616,7.693,7.693,0,0,0-1.751.165,3.539,3.539,0,0,0-1.091.437,1.567,1.567,0,0,0-.563.6,1.454,1.454,0,0,0-.17.64,1.6,1.6,0,0,0,.582,1.373,5.946,5.946,0,0,0,2.275.732l2.484.412a17.689,17.689,0,0,1,3.425.863,6.619,6.619,0,0,1,2.163,1.3,4.141,4.141,0,0,1,1.125,1.824,8.434,8.434,0,0,1,.32,2.425,5.408,5.408,0,0,1-2.105,4.458q-2.11,1.674-6.51,1.674a17.124,17.124,0,0,1-3.366-.32,8.429,8.429,0,0,1-2.857-1.062,6.354,6.354,0,0,1-2.057-2.129,6.921,6.921,0,0,1-.922-3.308Z" transform="translate(-95.312 -6.104)" fill="#d31e47"/><path d="M167.044,26.029,159.4,13.286l7.242-6.864h-6.093l-7.562,6.844V0H147.84V26.024h5.152V18.608l2.649-2.387h0l5.724,9.808Z" transform="translate(-76.126)" fill="#d31e47"/><path d="M132.936,12.542a10.86,10.86,0,0,0-1.237-.053,5.953,5.953,0,0,0-2.91.766,6.62,6.62,0,0,0-2.372,2.314V12.824H121.28V32.46h5.263V21.1a3.922,3.922,0,0,1,.32-1.543,3.835,3.835,0,0,1,1-1.353,3.507,3.507,0,0,1,1.426-.771,6.6,6.6,0,0,1,1.654-.2,9.851,9.851,0,0,1,1.994.175Z" transform="translate(-62.45 -6.43)" fill="#d31e47"/><path d="M248.579,12.39h1.455v3.454a8.876,8.876,0,0,1,2.852-2.794,7.2,7.2,0,0,1,3.711-.97,10.592,10.592,0,0,1,1.455.116l-.2,1.455a4.915,4.915,0,0,0-.64-.1h-.679a6.408,6.408,0,0,0-5.161,2.425,6.019,6.019,0,0,0-1.009,1.669,7.05,7.05,0,0,0-.349,2.484V32.356H248.56Z" transform="translate(-127.989 -6.22)" fill="#a7a9ac"/><path d="M288.113,22.052a14.37,14.37,0,0,1-.582,4.152,9.492,9.492,0,0,1-1.746,3.357,8.189,8.189,0,0,1-2.91,2.231,9.3,9.3,0,0,1-4,.8,9.483,9.483,0,0,1-4.016-.8,7.874,7.874,0,0,1-2.872-2.212,9.533,9.533,0,0,1-1.707-3.3,14.992,14.992,0,0,1-.563-4.21A14.334,14.334,0,0,1,270.3,17.9a9.792,9.792,0,0,1,1.746-3.357,8.165,8.165,0,0,1,2.91-2.251,9.341,9.341,0,0,1,4.016-.815,9.529,9.529,0,0,1,3.978.776,7.887,7.887,0,0,1,2.91,2.212,9.425,9.425,0,0,1,1.707,3.357A15.029,15.029,0,0,1,288.113,22.052Zm-16.842,0a14.822,14.822,0,0,0,.407,3.531A8.5,8.5,0,0,0,273,28.533a6.421,6.421,0,0,0,2.367,2.018,8.921,8.921,0,0,0,7.1,0,6.383,6.383,0,0,0,2.367-2.018,8.421,8.421,0,0,0,1.319-2.949,14.822,14.822,0,0,0,.407-3.531,15.083,15.083,0,0,0-.407-3.531,8.434,8.434,0,0,0-1.319-2.969,6.428,6.428,0,0,0-2.367-2.037,8.921,8.921,0,0,0-7.1,0A6.467,6.467,0,0,0,273,15.533a8.528,8.528,0,0,0-1.319,2.988A15.08,15.08,0,0,0,271.272,22.052Z" transform="translate(-138.884 -5.909)" fill="#a7a9ac"/><path d="M312.116,26.585a5.15,5.15,0,0,0,2,3.493,8.093,8.093,0,0,0,4.754,1.164,10.555,10.555,0,0,0,2.872-.33,4.848,4.848,0,0,0,1.863-.926,3.469,3.469,0,0,0,1.009-1.416,4.9,4.9,0,0,0,.31-1.78,3.527,3.527,0,0,0-1.125-2.828,8.447,8.447,0,0,0-4-1.455l-2.134-.349a25.039,25.039,0,0,1-2.522-.563,6.654,6.654,0,0,1-2.018-.927,4.6,4.6,0,0,1-1.358-1.494,4.528,4.528,0,0,1-.485-2.246,4.894,4.894,0,0,1,1.882-4.046,8.661,8.661,0,0,1,5.452-1.494,10.674,10.674,0,0,1,3.163.407,6.608,6.608,0,0,1,2.134,1.067,4.924,4.924,0,0,1,1.319,1.572,9.3,9.3,0,0,1,.757,1.882l-1.319.272a8.229,8.229,0,0,0-.752-1.669A4.094,4.094,0,0,0,322.8,13.7a5,5,0,0,0-1.7-.737,10.787,10.787,0,0,0-2.5-.252,10.977,10.977,0,0,0-2.823.31A4.607,4.607,0,0,0,314,13.89a3.265,3.265,0,0,0-.97,1.319,4.457,4.457,0,0,0-.291,1.61,3.1,3.1,0,0,0,1.121,2.639,8.461,8.461,0,0,0,3.667,1.281l2.469.427a18.162,18.162,0,0,1,2.624.621,6.706,6.706,0,0,1,2.023,1.053,4.512,4.512,0,0,1,1.3,1.572,5.181,5.181,0,0,1,.461,2.328,5.3,5.3,0,0,1-1.824,4.269q-1.819,1.557-5.627,1.552a13.053,13.053,0,0,1-3.163-.359,7.69,7.69,0,0,1-2.522-1.087,5.96,5.96,0,0,1-1.746-1.853,6.371,6.371,0,0,1-.834-2.678Z" transform="translate(-159.976 -5.862)" fill="#a7a9ac"/><path d="M350.146,8.19H347.08V6.87h3.066V1.36H351.6V6.87h6.248V8.19H351.62v13.4a5.253,5.253,0,0,0,.834,3.2,3.3,3.3,0,0,0,2.813,1.1,7.27,7.27,0,0,0,2.639-.485l.388,1.184a5.462,5.462,0,0,1-1.4.485,8.553,8.553,0,0,1-1.785.179,5.682,5.682,0,0,1-2.425-.446,3.775,3.775,0,0,1-1.513-1.242,5.046,5.046,0,0,1-.8-1.824,9.884,9.884,0,0,1-.233-2.193Z" transform="translate(-178.719 -0.7)" fill="#a7a9ac"/><path d="M386.988,22.381H371.272a13.725,13.725,0,0,0,.446,3.609,7.5,7.5,0,0,0,1.4,2.794,6.566,6.566,0,0,0,2.387,1.843,8.115,8.115,0,0,0,3.4.66,6.812,6.812,0,0,0,4.249-1.184,5.384,5.384,0,0,0,2-3.085h1.4a7.323,7.323,0,0,1-.8,2.154,5.912,5.912,0,0,1-1.552,1.785,7.282,7.282,0,0,1-2.309,1.184,10.11,10.11,0,0,1-3.085.427,8.245,8.245,0,0,1-6.675-2.736q-2.309-2.736-2.328-7.7a14.9,14.9,0,0,1,.66-4.676,9.453,9.453,0,0,1,1.863-3.318,7.663,7.663,0,0,1,2.833-2.018,9.481,9.481,0,0,1,3.628-.679,8.548,8.548,0,0,1,3.725.757,6.8,6.8,0,0,1,2.561,2.1,9.021,9.021,0,0,1,1.455,3.143,15.766,15.766,0,0,1,.485,3.939Zm-8.246-9.624a6.87,6.87,0,0,0-5.239,2.1,9.557,9.557,0,0,0-2.212,6.209h14.223a14.22,14.22,0,0,0-.369-3.342,7.049,7.049,0,0,0-1.184-2.615,5.577,5.577,0,0,0-2.1-1.712,7.275,7.275,0,0,0-3.143-.635Z" transform="translate(-190.415 -5.888)" fill="#a7a9ac"/><path d="M413.379,12.39h1.455v3.454a8.784,8.784,0,0,1,2.852-2.794,7.189,7.189,0,0,1,3.706-.97,10.442,10.442,0,0,1,1.455.116l-.194,1.455a5,5,0,0,0-.64-.1h-.679a6.408,6.408,0,0,0-5.161,2.425,5.905,5.905,0,0,0-1.009,1.669,7.051,7.051,0,0,0-.349,2.484V32.356H413.36Z" transform="translate(-212.848 -6.22)" fill="#a7a9ac"/></svg>