<svg xmlns="http://www.w3.org/2000/svg" width="161.682" height="25" viewBox="0 0 161.682 25"><g transform="translate(-129 -28)"><g transform="translate(129 28)"><path d="M224.655,49.48h-.235V49.9h.276q.2,0,.246-.067a.275.275,0,0,0,.067-.161.179.179,0,0,0-.063-.138.482.482,0,0,0-.273-.052" transform="translate(-140.606 -31.001)" fill="#fff"/><path d="M223.183,47.63a1.2,1.2,0,1,0,1.2,1.2v0a1.2,1.2,0,0,0-1.2-1.2m.351,1.927L223.257,49h-.329v.556h-.3V48.063h.549a.932.932,0,0,1,.317.041.51.51,0,0,1,.19.1.313.313,0,0,1,.093.142.667.667,0,0,1,.022.172.479.479,0,0,1-.056.25.372.372,0,0,1-.2.149l.317.624Z" transform="translate(-139.077 -29.842)" fill="#fff"/><path d="M3.88,22.686a2.082,2.082,0,0,0,1.072,1.737,4.852,4.852,0,0,0,2.084.407,4.383,4.383,0,0,0,2.073-.373,1.255,1.255,0,0,0,.624-1.173,1.472,1.472,0,0,0-.373-1.016,2.533,2.533,0,0,0-1.494-.605l-2.084-.351a8.973,8.973,0,0,1-4.108-1.494A3.781,3.781,0,0,1,.317,16.632,4.031,4.031,0,0,1,.8,14.664,4.421,4.421,0,0,1,2.144,13.17a6.8,6.8,0,0,1,2.069-.941A9.989,9.989,0,0,1,6.864,11.9a10.651,10.651,0,0,1,3.01.373,5.851,5.851,0,0,1,1.983.971,3.994,3.994,0,0,1,1.161,1.445,7.557,7.557,0,0,1,.564,1.8l-3.619.463a2.649,2.649,0,0,0-.915-1.535,3.532,3.532,0,0,0-2.1-.489,5.849,5.849,0,0,0-1.344.127,2.725,2.725,0,0,0-.84.336,1.216,1.216,0,0,0-.437.463,1.12,1.12,0,0,0-.131.493A1.225,1.225,0,0,0,4.65,17.4a4.555,4.555,0,0,0,1.752.564l1.912.317a13.564,13.564,0,0,1,2.614.665,5.063,5.063,0,0,1,1.666,1,3.2,3.2,0,0,1,.87,1.4,6.494,6.494,0,0,1,.246,1.867,4.157,4.157,0,0,1-1.625,3.432A7.82,7.82,0,0,1,7.1,27.956,13.156,13.156,0,0,1,4.5,27.709a6.463,6.463,0,0,1-2.2-.837A4.853,4.853,0,0,1,.71,25.233,5.415,5.415,0,0,1,0,22.686Z" transform="translate(0 -7.452)" fill="#fff"/><path d="M40,12.4h3.858v2a4.985,4.985,0,0,1,4.429-2.461,5.457,5.457,0,0,1,4.721,2.144,9.788,9.788,0,0,1,1.557,5.878,11.209,11.209,0,0,1-.448,3.272,7.5,7.5,0,0,1-1.3,2.547,5.848,5.848,0,0,1-2.073,1.636A6.35,6.35,0,0,1,48,28a4.639,4.639,0,0,1-2.129-.5,5.125,5.125,0,0,1-1.9-1.531v6.513H40Zm3.944,7.675a9.1,9.1,0,0,0,.246,2.36,3.162,3.162,0,0,0,.8,1.434,2.867,2.867,0,0,0,1.173.68,4.526,4.526,0,0,0,1.2.161,3.183,3.183,0,0,0,1.274-.261,2.691,2.691,0,0,0,1.072-.825,4.264,4.264,0,0,0,.71-1.46,7.99,7.99,0,0,0,.258-2.174,8.739,8.739,0,0,0-.243-2.241,4.2,4.2,0,0,0-.683-1.464,2.482,2.482,0,0,0-1.027-.81,3.244,3.244,0,0,0-1.255-.235,3.361,3.361,0,0,0-2.394.829,3.255,3.255,0,0,0-.855,1.389,7.028,7.028,0,0,0-.276,2.144Z" transform="translate(-25.061 -7.481)" fill="#fff"/><path d="M90.862,25.605a6.278,6.278,0,0,1-1.867,1.651,5.749,5.749,0,0,1-2.879.639,6.919,6.919,0,0,1-1.927-.261,4.4,4.4,0,0,1-1.591-.81A3.924,3.924,0,0,1,81.522,25.4a4.758,4.758,0,0,1-.407-2.043,4.323,4.323,0,0,1,.7-2.532,4.724,4.724,0,0,1,1.826-1.535,9.29,9.29,0,0,1,2.536-.784,23.145,23.145,0,0,1,2.85-.288l1.781-.086v-.747a2.2,2.2,0,0,0-.747-1.912,3.149,3.149,0,0,0-1.837-.53q-2.4,0-2.752,1.823l-3.7-.329a4.835,4.835,0,0,1,2.084-3.447,8.359,8.359,0,0,1,4.519-1.057,9.106,9.106,0,0,1,2.954.422,4.8,4.8,0,0,1,1.953,1.2,4.644,4.644,0,0,1,1.072,1.9,8.812,8.812,0,0,1,.332,2.506v9.557H90.862Zm-.082-4.836-1.8.09a10.34,10.34,0,0,0-2.054.258,3.7,3.7,0,0,0-1.2.508,1.494,1.494,0,0,0-.564.71,2.632,2.632,0,0,0-.146.9,1.46,1.46,0,0,0,.534,1.188A2.183,2.183,0,0,0,87,24.854a4.206,4.206,0,0,0,2.551-.725,2.987,2.987,0,0,0,1.244-2.577Z" transform="translate(-50.819 -7.477)" fill="#fff"/><path d="M188.973,22.661a2.076,2.076,0,0,0,1.072,1.737,4.852,4.852,0,0,0,2.084.407,4.383,4.383,0,0,0,2.069-.373,1.255,1.255,0,0,0,.624-1.173,1.472,1.472,0,0,0-.373-1.016,2.533,2.533,0,0,0-1.494-.605l-2.084-.351a8.914,8.914,0,0,1-4.108-1.494,3.8,3.8,0,0,1-1.344-3.2,4.031,4.031,0,0,1,.478-1.968,4.366,4.366,0,0,1,1.344-1.494,6.82,6.82,0,0,1,2.073-.941,9.961,9.961,0,0,1,2.648-.332,10.651,10.651,0,0,1,3.014.373,5.851,5.851,0,0,1,1.983.971,3.98,3.98,0,0,1,1.158,1.445,7.412,7.412,0,0,1,.564,1.8l-3.619.463a2.662,2.662,0,0,0-.911-1.535,3.678,3.678,0,0,0-2.106-.474,5.923,5.923,0,0,0-1.348.127,2.725,2.725,0,0,0-.84.336,1.207,1.207,0,0,0-.433.463,1.12,1.12,0,0,0-.131.493,1.232,1.232,0,0,0,.448,1.057,4.578,4.578,0,0,0,1.752.564l1.912.317a13.619,13.619,0,0,1,2.637.665,5.1,5.1,0,0,1,1.666,1,3.188,3.188,0,0,1,.866,1.4,6.493,6.493,0,0,1,.246,1.867,4.164,4.164,0,0,1-1.621,3.432,8.014,8.014,0,0,1-5.012,1.288,13.184,13.184,0,0,1-2.592-.246,6.489,6.489,0,0,1-2.2-.818,4.892,4.892,0,0,1-1.584-1.64,5.328,5.328,0,0,1-.71-2.547Z" transform="translate(-115.971 -7.427)" fill="#fff"/><path d="M162.626,20.04l-5.882-9.811,5.576-5.285h-4.691l-5.822,5.27V0H147.84V20.037h3.966v-5.71l2.039-1.837h0l4.407,7.552Z" transform="translate(-92.626)" fill="#fff"/><path d="M130.254,12.53a8.361,8.361,0,0,0-.952-.041,4.583,4.583,0,0,0-2.241.59,5.1,5.1,0,0,0-1.826,1.781V12.746H121.28V27.864h4.052V19.118a3.02,3.02,0,0,1,.246-1.188,2.952,2.952,0,0,1,.769-1.042,2.7,2.7,0,0,1,1.1-.594,5.084,5.084,0,0,1,1.274-.157,7.585,7.585,0,0,1,1.535.134Z" transform="translate(-75.986 -7.824)" fill="#fff"/><path d="M248.575,12.318h1.12v2.659a6.834,6.834,0,0,1,2.2-2.151,5.545,5.545,0,0,1,2.857-.747,8.155,8.155,0,0,1,1.12.09l-.153,1.12a3.785,3.785,0,0,0-.493-.075H254.7a4.934,4.934,0,0,0-3.974,1.867,4.635,4.635,0,0,0-.777,1.285,5.428,5.428,0,0,0-.269,1.912V27.69h-1.12Z" transform="translate(-155.731 -7.568)" fill="#fff"/><path d="M283.881,19.619a11.064,11.064,0,0,1-.448,3.2,7.308,7.308,0,0,1-1.345,2.584,6.3,6.3,0,0,1-2.241,1.718,7.163,7.163,0,0,1-3.077.612,7.3,7.3,0,0,1-3.092-.612,6.062,6.062,0,0,1-2.211-1.7,7.34,7.34,0,0,1-1.315-2.54,11.541,11.541,0,0,1-.433-3.242,11.036,11.036,0,0,1,.448-3.212,7.539,7.539,0,0,1,1.345-2.584,6.286,6.286,0,0,1,2.241-1.733,7.192,7.192,0,0,1,3.092-.627,7.336,7.336,0,0,1,3.062.6,6.072,6.072,0,0,1,2.241,1.7,7.257,7.257,0,0,1,1.315,2.584A11.572,11.572,0,0,1,283.881,19.619Zm-12.967,0a11.412,11.412,0,0,0,.314,2.719,6.546,6.546,0,0,0,1.016,2.271,4.943,4.943,0,0,0,1.823,1.554,6.869,6.869,0,0,0,5.468,0,4.914,4.914,0,0,0,1.823-1.554,6.483,6.483,0,0,0,1.016-2.271,11.411,11.411,0,0,0,.314-2.719,11.611,11.611,0,0,0-.314-2.719,6.493,6.493,0,0,0-1.016-2.286,4.949,4.949,0,0,0-1.823-1.569,6.869,6.869,0,0,0-5.468,0,4.979,4.979,0,0,0-1.823,1.554,6.566,6.566,0,0,0-1.016,2.3A11.609,11.609,0,0,0,270.914,19.619Z" transform="translate(-168.987 -7.19)" fill="#fff"/><path d="M311.785,23.088a3.965,3.965,0,0,0,1.539,2.689,6.231,6.231,0,0,0,3.66.9,8.127,8.127,0,0,0,2.211-.254,3.733,3.733,0,0,0,1.434-.713,2.671,2.671,0,0,0,.777-1.091,3.773,3.773,0,0,0,.239-1.371,2.716,2.716,0,0,0-.866-2.177,6.5,6.5,0,0,0-3.077-1.12l-1.643-.269a19.277,19.277,0,0,1-1.942-.433,5.123,5.123,0,0,1-1.554-.713,3.545,3.545,0,0,1-1.046-1.15,3.486,3.486,0,0,1-.373-1.729,3.768,3.768,0,0,1,1.449-3.115,6.669,6.669,0,0,1,4.2-1.15,8.218,8.218,0,0,1,2.435.314,5.088,5.088,0,0,1,1.643.822,3.791,3.791,0,0,1,1.016,1.21,7.163,7.163,0,0,1,.583,1.449l-1.016.209a6.334,6.334,0,0,0-.579-1.285,3.152,3.152,0,0,0-.863-.941A3.849,3.849,0,0,0,318.7,12.6a8.3,8.3,0,0,0-1.923-.194,8.452,8.452,0,0,0-2.174.239,3.547,3.547,0,0,0-1.367.672,2.514,2.514,0,0,0-.747,1.016,3.431,3.431,0,0,0-.224,1.24,2.386,2.386,0,0,0,.863,2.032,6.514,6.514,0,0,0,2.823.986l1.9.329a13.984,13.984,0,0,1,2.021.478,5.164,5.164,0,0,1,1.557.81,3.474,3.474,0,0,1,1,1.21,3.989,3.989,0,0,1,.355,1.793,4.079,4.079,0,0,1-1.4,3.287,6.541,6.541,0,0,1-4.332,1.2,10.049,10.049,0,0,1-2.435-.276,5.921,5.921,0,0,1-1.942-.837,4.588,4.588,0,0,1-1.344-1.427,4.9,4.9,0,0,1-.642-2.062Z" transform="translate(-194.651 -7.133)" fill="#fff"/><path d="M349.44,6.618h-2.36V5.6h2.36V1.36h1.12V5.6h4.81V6.618h-4.8V16.934a4.045,4.045,0,0,0,.642,2.461,2.538,2.538,0,0,0,2.166.848,5.6,5.6,0,0,0,2.032-.373l.3.911a4.206,4.206,0,0,1-1.076.373,6.585,6.585,0,0,1-1.374.138,4.375,4.375,0,0,1-1.867-.344,2.906,2.906,0,0,1-1.165-.956,3.884,3.884,0,0,1-.612-1.4,7.609,7.609,0,0,1-.179-1.688Z" transform="translate(-217.456 -0.852)" fill="#fff"/><path d="M383.032,19.862h-12.1a10.567,10.567,0,0,0,.344,2.779,5.773,5.773,0,0,0,1.076,2.151,5.055,5.055,0,0,0,1.837,1.419,6.248,6.248,0,0,0,2.614.508,5.245,5.245,0,0,0,3.272-.911,4.145,4.145,0,0,0,1.539-2.375h1.076a5.638,5.638,0,0,1-.612,1.658,4.552,4.552,0,0,1-1.2,1.374,5.607,5.607,0,0,1-1.778.911,7.783,7.783,0,0,1-2.375.329,6.348,6.348,0,0,1-5.139-2.106,8.991,8.991,0,0,1-1.793-5.931,11.472,11.472,0,0,1,.508-3.6,7.278,7.278,0,0,1,1.434-2.555,5.9,5.9,0,0,1,2.181-1.554,7.3,7.3,0,0,1,2.794-.523,6.581,6.581,0,0,1,2.868.583,5.233,5.233,0,0,1,1.972,1.613,6.945,6.945,0,0,1,1.12,2.42,12.139,12.139,0,0,1,.373,3.033Zm-6.349-7.41a5.289,5.289,0,0,0-4.033,1.613,7.358,7.358,0,0,0-1.7,4.78H381.9a10.947,10.947,0,0,0-.284-2.573,5.427,5.427,0,0,0-.911-2.013,4.294,4.294,0,0,0-1.613-1.318,5.6,5.6,0,0,0-2.42-.489Z" transform="translate(-231.688 -7.164)" fill="#fff"/><path d="M413.375,12.318h1.12v2.659a6.762,6.762,0,0,1,2.2-2.151,5.535,5.535,0,0,1,2.853-.747,8.039,8.039,0,0,1,1.12.09l-.149,1.12a3.849,3.849,0,0,0-.493-.075H419.5a4.934,4.934,0,0,0-3.974,1.867,4.545,4.545,0,0,0-.777,1.285,5.428,5.428,0,0,0-.269,1.912V27.69h-1.12Z" transform="translate(-258.983 -7.568)" fill="#fff"/></g></g></svg>