<svg xmlns="http://www.w3.org/2000/svg" width="226" height="226" viewBox="0 0 226 226"><g transform="translate(-587 -188)"><circle cx="113" cy="113" r="113" transform="translate(587 188)" fill="#d0d1d2" opacity="0.1"/><g transform="translate(635 249)"><g transform="translate(44.476 78.194)"><path d="M146.185,394.89a1.982,1.982,0,1,0,.581,1.4A2,2,0,0,0,146.185,394.89Z" transform="translate(-142.8 -394.309)" fill="rgba(25,25,25,0.22)"/></g><g transform="translate(64.982)" opacity="0.5"><path d="M248.186.009A1.983,1.983,0,0,0,246.2,1.992V8.739a1.983,1.983,0,1,0,3.966,0V1.992A1.983,1.983,0,0,0,248.186.009Z" transform="translate(-246.203 -0.009)" fill="#d31e49"/></g><g transform="translate(64.981 13.287)" opacity="0.5"><path d="M249.585,67.59a1.981,1.981,0,1,0,.581,1.4A1.994,1.994,0,0,0,249.585,67.59Z" transform="translate(-246.2 -67.009)" fill="#d31e49"/></g><g transform="translate(76.906 7.198)" opacity="0.5"><path d="M313.2,36.888a1.984,1.984,0,0,0-2.8,0l-3.486,3.485a1.983,1.983,0,0,0,2.8,2.8l3.486-3.485A1.983,1.983,0,0,0,313.2,36.888Z" transform="translate(-306.331 -36.307)" fill="#d31e49"/></g><g transform="translate(49.492 7.189)" opacity="0.5"><path d="M175,40.359l-3.519-3.519a1.983,1.983,0,0,0-2.8,2.8l3.519,3.519a1.983,1.983,0,1,0,2.8-2.8Z" transform="translate(-168.091 -36.259)" fill="#d31e49"/></g><path d="M91.408,138.444a8.3,8.3,0,0,0,1.421-4.654V132.2A8.341,8.341,0,0,0,78.6,126.293a29.352,29.352,0,0,0-55.657,0A8.341,8.341,0,0,0,8.705,132.2v1.591a8.3,8.3,0,0,0,1.421,4.654A12.782,12.782,0,0,0,0,150.93v3.993a1.983,1.983,0,0,0,1.983,1.983H12.3a1.983,1.983,0,1,0,0-3.966H3.966v-2.01a8.8,8.8,0,0,1,8.794-8.794h9.386a29.184,29.184,0,0,0,3.895,9.287L3.414,174.049a7.432,7.432,0,0,0,10.51,10.51L26.4,172.085a1.983,1.983,0,0,0-2.8-2.8L11.12,181.755a3.466,3.466,0,1,1-4.9-4.9l22.212-22.212a29.336,29.336,0,0,0,50.957-12.506h9.386a8.8,8.8,0,0,1,8.794,8.794v2.01H78.927a1.983,1.983,0,0,0,0,3.966H99.552a1.983,1.983,0,0,0,1.983-1.983V150.93A12.782,12.782,0,0,0,91.408,138.444Zm-69.978-4.653a4.379,4.379,0,0,1-8.758,0V132.2a4.379,4.379,0,0,1,8.758,0Zm29.338,27.218a25.384,25.384,0,1,1,25.384-25.384A25.413,25.413,0,0,1,50.767,161.008Zm38.1-27.218a4.379,4.379,0,0,1-8.758,0V132.2a4.379,4.379,0,0,1,8.758,0Z" transform="translate(16.157 -85.201)" fill="rgba(167,169,172,0.5)"/><g transform="translate(53.435 39.219)"><path d="M-263.992,253.837l1.025-.943-1.025-.945a1.686,1.686,0,0,1-.083-2.437.8.8,0,0,1,.08-.084,2.105,2.105,0,0,1,2.748-.006l1.025.943,1.025-.944a2.114,2.114,0,0,1,2.647-.078.908.908,0,0,1,.1.078,1.709,1.709,0,0,1,.569,1.262,1.7,1.7,0,0,1-.568,1.263l-1.025.944,1.024.943a1.705,1.705,0,0,1,.569,1.262,1.705,1.705,0,0,1-.568,1.264,2.111,2.111,0,0,1-2.745,0l-1.024-.943-1.024.943a2.017,2.017,0,0,1-1.372.524,2.014,2.014,0,0,1-1.372-.524A1.687,1.687,0,0,1-263.992,253.837Z" transform="translate(265.619 -248.908)" fill="#d3d4d5"/><path d="M-235.876,253.822l1.025-.943-1.025-.944a1.686,1.686,0,0,1-.083-2.437.785.785,0,0,1,.08-.084,2.106,2.106,0,0,1,2.748-.006l1.025.943,1.026-.944a2.114,2.114,0,0,1,2.647-.078,1.05,1.05,0,0,1,.1.078,1.708,1.708,0,0,1,.569,1.262,1.7,1.7,0,0,1-.568,1.263l-1.025.944,1.024.943a1.707,1.707,0,0,1,.569,1.263,1.705,1.705,0,0,1-.568,1.263,2.11,2.11,0,0,1-2.745,0l-1.025-.943-1.024.944a2.014,2.014,0,0,1-1.372.524,2.01,2.01,0,0,1-1.372-.524A1.687,1.687,0,0,1-235.876,253.822Z" transform="translate(253.879 -248.901)" fill="#d3d4d5"/><path d="M-266.378,287.626v-2.2a.561.561,0,0,1,.582-.536,4.366,4.366,0,0,0,2.856-1.343.6.6,0,0,1,.474-.224h0a.6.6,0,0,1,.474.225,3.609,3.609,0,0,0,2.851,1.342,3.607,3.607,0,0,0,2.852-1.342.6.6,0,0,1,.474-.225h0a.6.6,0,0,1,.474.224,3.621,3.621,0,0,0,2.855,1.343,3.614,3.614,0,0,0,2.854-1.342.638.638,0,0,1,.948,0,3.614,3.614,0,0,0,2.853,1.342,3.614,3.614,0,0,0,2.854-1.342.6.6,0,0,1,.473-.224h0a.6.6,0,0,1,.474.224,4.36,4.36,0,0,0,2.853,1.343.561.561,0,0,1,.582.536v2.2a.561.561,0,0,1-.582.536,5.744,5.744,0,0,1-3.313-1.288,4.9,4.9,0,0,1-3.343,1.288,4.9,4.9,0,0,1-3.327-1.274,4.9,4.9,0,0,1-3.328,1.274,4.907,4.907,0,0,1-3.328-1.274,4.9,4.9,0,0,1-3.327,1.274,4.891,4.891,0,0,1-3.34-1.288,5.746,5.746,0,0,1-3.315,1.288A.56.56,0,0,1-266.378,287.626Z" transform="translate(266.378 -264.864)" fill="#d3d4d5"/></g><g transform="translate(2.868 37.958)" opacity="0.5"><rect width="10.206" height="2.401" rx="1.201" transform="translate(0 5.22) rotate(-13)" fill="#d31e49"/><rect width="10.206" height="2.401" rx="1.201" transform="translate(5.264 0) rotate(77)" fill="#d31e49"/></g><g transform="translate(0 72.007)" opacity="0.5"><g transform="translate(0 0)" fill="#fff" stroke="#d31e49" stroke-width="2"><circle cx="5.157" cy="5.157" r="5.157" stroke="none"/><circle cx="5.157" cy="5.157" r="4.157" fill="none"/></g></g><g transform="translate(85.931 82.35)" opacity="0.5"><rect width="11.24" height="2.645" rx="1.322" transform="translate(1.362 1.47) rotate(31)" fill="#d31e49"/><rect width="11.24" height="2.645" rx="1.322" transform="translate(9.526 1.362) rotate(121)" fill="#d31e49"/></g><g transform="translate(25.649 17.495)" opacity="0.5"><rect width="5.806" height="1.366" rx="0.683" transform="translate(0.33 1.617) rotate(14)" fill="#d31e49"/><rect width="5.806" height="1.366" rx="0.683" transform="translate(4.347 0.33) rotate(104)" fill="#d31e49"/></g><g transform="translate(122.92 74.576)" opacity="0.5"><rect width="5.806" height="1.366" rx="0.683" transform="translate(0.33 1.617) rotate(14)" fill="#d31e49"/><rect width="5.806" height="1.366" rx="0.683" transform="translate(4.347 0.33) rotate(104)" fill="#d31e49"/></g><g transform="translate(97.09 16.909)" fill="#fff" stroke="#d31e49" stroke-width="2" opacity="0.5"><ellipse cx="4.23" cy="4.23" rx="4.23" ry="4.23" stroke="none"/><ellipse cx="4.23" cy="4.23" rx="3.23" ry="3.23" fill="none"/></g><rect width="5.356" height="1.26" rx="0.63" transform="translate(137.578 54.74) rotate(26)" fill="#f2f4fa"/><rect width="5.356" height="1.26" rx="0.63" transform="translate(141.449 54.35) rotate(116)" fill="#f2f4fa"/></g></g></svg>