<svg xmlns="http://www.w3.org/2000/svg" width="16.8" height="16" viewBox="0 0 16.8 16"><style>svg { stroke: none;}</style><g transform="translate(-45 -698)"><path d="M134.484,22.394a4.49,4.49,0,1,0-4.5-4.5A4.5,4.5,0,0,0,134.484,22.394Zm0-7.807a3.31,3.31,0,1,1-3.31,3.31A3.32,3.32,0,0,1,134.484,14.587Z" transform="translate(-81.111 684.585)" /><path d="M.593,347.16H16.207a.589.589,0,0,0,.593-.593,5.648,5.648,0,0,0-5.641-5.641H5.641A5.648,5.648,0,0,0,0,346.567.589.589,0,0,0,.593,347.16Zm5.048-5.048h5.517a4.452,4.452,0,0,1,4.414,3.862H1.228A4.464,4.464,0,0,1,5.641,342.112Z" transform="translate(45 366.839)"/></g></svg>