<svg xmlns="http://www.w3.org/2000/svg" width="29.579" height="35" viewBox="0 0 29.579 35"><style>svg { stroke: none;}</style><g transform="translate(0)"><path d="M188.832-90.608a2.166,2.166,0,0,0-2.165-2.164,2.166,2.166,0,0,0-2.164,2.164v9.018a2.167,2.167,0,0,0,2.164,2.165,2.167,2.167,0,0,0,2.165-2.165Z" transform="translate(-159.253 104.134)" fill="#76b643"/><path d="M156.835-90.608a2.167,2.167,0,0,0-2.165-2.164,2.167,2.167,0,0,0-2.165,2.164v9.018a2.168,2.168,0,0,0,2.165,2.165,2.168,2.168,0,0,0,2.165-2.165Z" transform="translate(-152.506 104.134)" fill="#76b643"/><g transform="translate(5.135 0)"><path d="M173.4-103.958l1.527-2.755a.308.308,0,0,0-.12-.418.3.3,0,0,0-.148-.039.307.307,0,0,0-.27.159l-1.544,2.785a10.292,10.292,0,0,0-4.178-.875,10.286,10.286,0,0,0-4.178.875l-1.544-2.785a.308.308,0,0,0-.419-.12.308.308,0,0,0-.12.418l1.527,2.755a8.821,8.821,0,0,0-4.92,7.757h19.309A8.823,8.823,0,0,0,173.4-103.958Zm-9.19,4.224a.807.807,0,0,1-.807-.806.807.807,0,0,1,.807-.806.807.807,0,0,1,.807.806A.807.807,0,0,1,164.212-99.734Zm8.912,0a.807.807,0,0,1-.806-.806.807.807,0,0,1,.806-.806.807.807,0,0,1,.806.806A.807.807,0,0,1,173.124-99.734Z" transform="translate(-159.013 107.17)" fill="#76b643"/><path d="M159.013-92.3v13.994a2.334,2.334,0,0,0,2.334,2.334H162.9V-71.2a2.167,2.167,0,0,0,2.165,2.165,2.167,2.167,0,0,0,2.164-2.165v-4.774h2.886V-71.2a2.167,2.167,0,0,0,2.165,2.165A2.168,2.168,0,0,0,174.44-71.2v-4.774h1.548a2.334,2.334,0,0,0,2.334-2.334V-92.3Z" transform="translate(-159.013 104.035)" fill="#76b643"/></g></g></svg>