<svg xmlns="http://www.w3.org/2000/svg" xmlns:xlink="http://www.w3.org/1999/xlink" width="40" height="40" viewBox="0 0 40 40"><style>svg { stroke: none;}</style><defs><clipPath id="b"><rect width="40" height="40"/></clipPath></defs><g id="a" clip-path="url(#b)"><path d="M20.782,41.943a2.546,2.546,0,0,0-1.846-.847,2.632,2.632,0,0,0-1.868.841l-1.726,1.721c-.142-.076-.284-.147-.421-.219-.2-.1-.382-.191-.541-.29a18.762,18.762,0,0,1-4.5-4.1,11.069,11.069,0,0,1-1.475-2.327c.448-.41.863-.836,1.267-1.246.153-.153.306-.311.459-.464a2.506,2.506,0,0,0,0-3.78L8.643,29.744c-.169-.169-.344-.344-.508-.519-.328-.339-.672-.688-1.027-1.016a2.586,2.586,0,0,0-1.83-.8,2.676,2.676,0,0,0-1.857.8l-.011.011L1.552,30.094a4,4,0,0,0-1.185,2.54,9.577,9.577,0,0,0,.7,4.053,23.522,23.522,0,0,0,4.179,6.971,25.708,25.708,0,0,0,8.56,6.7,13.338,13.338,0,0,0,4.807,1.42c.115.005.235.011.344.011a4.116,4.116,0,0,0,3.152-1.355c.005-.011.016-.016.022-.027a12.419,12.419,0,0,1,.956-.989c.235-.224.475-.459.71-.7a2.725,2.725,0,0,0,.825-1.89,2.625,2.625,0,0,0-.841-1.874ZM22.737,47.7c-.005,0-.005.005,0,0-.213.229-.432.437-.666.666a14.366,14.366,0,0,0-1.054,1.093,2.634,2.634,0,0,1-2.054.869c-.082,0-.169,0-.251-.005a11.849,11.849,0,0,1-4.261-1.278,24.267,24.267,0,0,1-8.063-6.315,22.178,22.178,0,0,1-3.933-6.55,7.8,7.8,0,0,1-.612-3.42A2.508,2.508,0,0,1,2.6,31.132l1.863-1.863a1.242,1.242,0,0,1,.83-.388,1.169,1.169,0,0,1,.8.382l.016.016c.333.311.65.634.983.978.169.175.344.35.519.53L9.1,32.279a1.043,1.043,0,0,1,0,1.693c-.158.158-.311.317-.47.47-.459.47-.9.907-1.371,1.333-.011.011-.022.016-.027.027a1.114,1.114,0,0,0-.284,1.24l.016.049a11.973,11.973,0,0,0,1.765,2.879l.005.005a20.051,20.051,0,0,0,4.851,4.414,7.461,7.461,0,0,0,.672.366c.2.1.382.191.541.29.022.011.044.027.066.038a1.184,1.184,0,0,0,.541.137,1.168,1.168,0,0,0,.83-.377L18.1,42.975a1.236,1.236,0,0,1,.825-.41,1.113,1.113,0,0,1,.787.4l.011.011,3.01,3.01A1.08,1.08,0,0,1,22.737,47.7Z" transform="translate(8.156 -18.906)" fill="#d31e49"/></g></svg>