<svg xmlns="http://www.w3.org/2000/svg" width="106.003" height="75.951" viewBox="0 0 106.003 75.951"><g transform="translate(-144 -407)"><path d="M138.081,154.46a.945.945,0,0,1-1.335,0l-11.485-11.485h2.162a2.517,2.517,0,0,0,2.515-2.515V126.145a2.114,2.114,0,0,1,2.113-2.113h10.723a2.114,2.114,0,0,1,2.113,2.113v14.317a2.517,2.517,0,0,0,2.515,2.515h2.162Z" transform="translate(59.777 327.874)" fill="#222" opacity="0.2"/><path d="M128.365,135.176h2.364a.854.854,0,1,0,0-1.708h-2.364a14.073,14.073,0,1,1,11.4-22.264.855.855,0,0,0,1.249.149,10.474,10.474,0,0,1,6.89-2.6,10.668,10.668,0,0,1,10.483,9.113.856.856,0,0,0,1.136.681,7.567,7.567,0,0,1,2.605-.487,7.7,7.7,0,0,1,0,15.406h-8.9a.854.854,0,0,0,0,1.708h8.9a9.411,9.411,0,0,0,0-18.823,8.838,8.838,0,0,0-2.232.292,12.39,12.39,0,0,0-11.992-9.6,12.085,12.085,0,0,0-7.3,2.445,15.766,15.766,0,1,0-12.241,25.685Z" transform="translate(55.128 320.385)" fill="#323338"/><path d="M143.281,121.782H132.557a3.826,3.826,0,0,0-3.821,3.821V139.92a.807.807,0,0,1-.806.806h-2.464a1.583,1.583,0,0,0-1.119,2.7l11.7,11.7a2.653,2.653,0,0,0,3.75,0l11.7-11.7a1.583,1.583,0,0,0-1.119-2.7h-2.464a.807.807,0,0,1-.806-.806V125.6A3.825,3.825,0,0,0,143.281,121.782Zm4.628,20.653h2.162l-11.483,11.483a.945.945,0,0,1-1.335,0l-11.485-11.485h2.162a2.517,2.517,0,0,0,2.515-2.515V125.6a2.114,2.114,0,0,1,2.113-2.113h10.723a2.114,2.114,0,0,1,2.113,2.113V139.92A2.517,2.517,0,0,0,147.908,142.435Z" transform="translate(59.271 327.048)" fill="#323338"/><g transform="translate(1029 -2067)"><path d="M159.869,163.951a4.21,4.21,0,1,1,4.21-4.21A4.214,4.214,0,0,1,159.869,163.951Zm0-6.711a2.5,2.5,0,1,0,2.5,2.5A2.5,2.5,0,0,0,159.869,157.24Z" transform="translate(-966.075 2377.426)" fill="#323338" opacity="0.43"/><path d="M159.264,162.742a3.6,3.6,0,1,1,3.6-3.6A3.609,3.609,0,0,1,159.264,162.742Zm0-5.747a2.142,2.142,0,1,0,2.142,2.142A2.144,2.144,0,0,0,159.264,156.995Z" transform="translate(-1017.075 2370.426)" fill="#323338" opacity="0.43"/><path d="M176.022,118.837a5.905,5.905,0,0,1-5.9-5.9.854.854,0,1,0-1.708,0,5.905,5.905,0,0,1-5.9,5.9.854.854,0,1,0,0,1.708,5.9,5.9,0,0,1,5.9,5.9.854.854,0,0,0,1.708,0,5.9,5.9,0,0,1,5.9-5.9.854.854,0,0,0,0-1.708Zm-6.752,4.118A7.642,7.642,0,0,0,166,119.691a7.652,7.652,0,0,0,3.265-3.265,7.652,7.652,0,0,0,3.265,3.265A7.642,7.642,0,0,0,169.27,122.955Z" transform="translate(-955.873 2390.492)" fill="#323338" opacity="0.43"/><path d="M70.816,99.546a5.906,5.906,0,0,1-5.9-5.9.854.854,0,1,0-1.708,0,5.905,5.905,0,0,1-5.9,5.9.854.854,0,0,0,0,1.708,5.9,5.9,0,0,1,5.9,5.9.854.854,0,1,0,1.708,0,5.906,5.906,0,0,1,5.9-5.9.854.854,0,1,0,0-1.708Zm-6.753,4.118A7.646,7.646,0,0,0,60.8,100.4a7.649,7.649,0,0,0,3.264-3.265,7.66,7.66,0,0,0,3.265,3.265A7.657,7.657,0,0,0,64.063,103.664Z" transform="translate(-941.457 2402.417)" fill="#323338" opacity="0.43"/><path d="M104.573,98.132a4.21,4.21,0,1,1,4.21-4.21A4.213,4.213,0,0,1,104.573,98.132Zm0-6.711a2.5,2.5,0,1,0,2.5,2.5A2.5,2.5,0,0,0,104.573,91.421Z" transform="translate(-919.354 2384.287)" fill="#323338" opacity="0.43"/></g></g></svg>