<svg xmlns="http://www.w3.org/2000/svg" width="32" height="27.432" viewBox="0 0 32 27.432">
  <g id="Group_5219" data-name="Group 5219" transform="translate(0 -31.877)">
    <path id="Path_5782" data-name="Path 5782" d="M140.631,159.607a2.288,2.288,0,0,0-2.286,2.286.762.762,0,0,0,1.524,0,.762.762,0,1,1,1.524,0,.762.762,0,0,0,1.524,0A2.288,2.288,0,0,0,140.631,159.607Z" transform="translate(-128.441 -118.586)" fill="rgba(25,25,25,0.45)"/>
    <path id="Path_5783" data-name="Path 5783" d="M247.074,159.607a2.289,2.289,0,0,0-2.286,2.286.762.762,0,0,0,1.524,0,.762.762,0,0,1,1.524,0,.762.762,0,0,0,1.524,0A2.289,2.289,0,0,0,247.074,159.607Z" transform="translate(-227.264 -118.586)" fill="rgba(25,25,25,0.45)"/>
    <path id="Path_5784" data-name="Path 5784" d="M29.772,38c-1.831-3.939-6.578-4-7.97-3.935A7.91,7.91,0,0,0,16,31.877a7.911,7.911,0,0,0-5.8,2.189C8.806,34,4.06,34.064,2.228,38-.094,42.993-.6,46.45.712,48.278A3,3,0,0,0,3.25,49.507a4.157,4.157,0,0,0,.486-.028,4.949,4.949,0,0,0,1.507-.433c-.6,3.127-.24,5.485,1.117,7.175C8.026,58.3,11.18,59.309,16,59.309s7.973-1.011,9.64-3.088c1.357-1.69,1.715-4.048,1.117-7.175a4.949,4.949,0,0,0,1.507.433,4.156,4.156,0,0,0,.486.028,3.005,3.005,0,0,0,2.537-1.229C32.6,46.45,32.094,42.993,29.772,38ZM3.564,47.965a1.663,1.663,0,0,1-1.615-.579c-.44-.61-1.158-2.683,1.66-8.742C4.7,36.308,7.28,35.733,8.934,35.612c-1.757,2.709-2.42,6.459-3,9.77-.083.474-.165.937-.248,1.393A2.932,2.932,0,0,1,3.564,47.965ZM16,53.213a1.526,1.526,0,0,1-1.524-1.524h3.048A1.525,1.525,0,0,1,16,53.213Zm8.452,2.054c-1.276,1.591-3.808,2.4-7.69,2.5V54.629a3.045,3.045,0,0,0,2.286-2.94,1.525,1.525,0,0,0-1.524-1.524H14.476a1.525,1.525,0,0,0-1.524,1.524,3.045,3.045,0,0,0,2.286,2.94v3.137c-3.882-.1-6.414-.908-7.69-2.5-1.13-1.409-1.363-3.523-.71-6.461.217-.981.4-2.052.6-3.163C8.44,39.9,9.577,33.4,16,33.4s7.56,6.5,8.563,12.243c.194,1.11.382,2.182.6,3.163C25.815,51.744,25.582,53.857,24.452,55.267Zm5.6-7.881a1.676,1.676,0,0,1-1.615.579,2.933,2.933,0,0,1-2.124-1.19c-.083-.456-.165-.919-.248-1.393-.579-3.311-1.242-7.062-3-9.771,1.654.121,4.239.7,5.325,3.033C31.209,44.7,30.491,46.776,30.051,47.386Z" transform="translate(0 0)" fill="rgba(25,25,25,0.45)"/>
  </g>
</svg>
