<svg xmlns="http://www.w3.org/2000/svg" width="25.932" height="30" viewBox="0 0 25.932 30">
  <g id="Group_5213" data-name="Group 5213" transform="translate(-34.132)">
    <path id="Path_5770" data-name="Path 5770" d="M151.872,38.113a13.071,13.071,0,0,1-7.22,0c-2.085-.763-3-2.492-3-5.593a18.075,18.075,0,0,1,1.525-7.627,7.63,7.63,0,0,1,1.424-2.034,5.035,5.035,0,0,1,7.22,0,6.63,6.63,0,0,1,1.424,2.034,17.182,17.182,0,0,1,1.576,7.627c.051,3.1-.915,4.831-2.949,5.593" transform="translate(-101.113 -20.062)" fill="#e5e6e8"/>
    <path id="Path_5771" data-name="Path 5771" d="M180.363,311.578V312.6a2.04,2.04,0,0,0,2.034,2.034h.508c1.119,0,2.034-.61,2.034-1.525,0-.2-.051-.356-.051-.508-.2-.763-1.017-1.017-1.983-1.017l1.017-6.1a8.529,8.529,0,0,1,.966-2.492,5.527,5.527,0,0,0-.915-.051,10.455,10.455,0,0,1-3.61.508v8.136Zm0,1.017a2.04,2.04,0,0,1-2.034,2.034h-.508c-1.119,0-2.034-.61-2.034-1.525a1.568,1.568,0,0,1,.051-.508c.2-.763,1.017-1.017,1.983-1.017h2.542v1.017Zm0-9.153v8.136h-2.542l-1.017-6.1a7.19,7.19,0,0,0-.966-2.492,5.527,5.527,0,0,1,.915-.051A10.456,10.456,0,0,0,180.363,303.442Z" transform="translate(-133.214 -284.883)" fill="#e5e6e8"/>
    <path id="Path_5772" data-name="Path 5772" d="M95.03,313.4c-.508-1.017-2.542-1.017-2.542-1.017a8.751,8.751,0,0,1-1.017-4.576,4.647,4.647,0,0,1,.254-1.576,3.3,3.3,0,0,1,2.288-1.983,5.9,5.9,0,0,1,1.576-.458,7.189,7.189,0,0,1,.966,2.492l1.017,6.1c-.966,0-1.729.305-1.983,1.017H95.03Zm-2.542-1.017s2.034,0,2.542,1.017A2.04,2.04,0,0,1,93,315.431h-.508c-1.119,0-2.034-.61-2.034-1.525C90.454,312.787,91.369,312.38,92.488,312.38Z" transform="translate(-52.966 -285.685)" fill="#e5e6e8"/>
    <path id="Path_5773" data-name="Path 5773" d="M73.469,232.02A3.391,3.391,0,0,0,71.181,234H71.13a10.513,10.513,0,0,1-1.22-1.424s-2.034-3.051-1.017-5.593a5.506,5.506,0,0,0,2.542,4.068,6,6,0,0,0,2.034.966" transform="translate(-32.421 -213.461)" fill="#d31e49"/>
    <path id="Path_5774" data-name="Path 5774" d="M300.339,312.38c1.119,0,2.034.407,2.034,1.525,0,.915-.915,1.525-2.034,1.525h-.508A2.04,2.04,0,0,1,297.8,313.4h-.559c-.2-.763-1.017-1.017-1.983-1.017l1.017-6.1a8.527,8.527,0,0,1,.966-2.492,5.9,5.9,0,0,1,1.576.458,3.407,3.407,0,0,1,2.542,3.559,8.751,8.751,0,0,1-1.017,4.576Z" transform="translate(-245.563 -285.685)" fill="#e4e5e7"/>
    <path id="Path_5775" data-name="Path 5775" d="M49.158,6.808a8.543,8.543,0,0,0-1.424,2.034h0L46.26,7.724l-.051.1-2.034,3.051c-.508.712-.915,1.525-2.034,1.525a2.04,2.04,0,0,1-2.034-2.034,5.43,5.43,0,0,1,.508-2.034C41.632,6.3,44.175,4.266,45.7,4.266c.966,0,3.458,2.542,3.458,2.542Z" transform="translate(-5.619 -4.012)" fill="#d31e49"/>
    <path id="Path_5776" data-name="Path 5776" d="M315.451,8.842a7.631,7.631,0,0,0-1.424-2.034h0s2.491-2.542,3.508-2.542c1.525,0,4.068,2.034,5.085,4.068a5.43,5.43,0,0,1,.509,2.034,2.04,2.04,0,0,1-2.034,2.034c-1.119,0-1.525-.763-2.034-1.525l-2.034-3.051-.051-.1-1.525,1.119Z" transform="translate(-263.217 -4.012)" fill="#d31e49"/>
    <path id="Path_5777" data-name="Path 5777" d="M228.511,192c.864,0,1.525.458,1.525,1.017s-.661,1.017-1.525,1.017-1.525-.458-1.525-1.017.661-1.017,1.525-1.017" transform="translate(-181.362 -180.559)" fill="#afb4b8"/>
    <path id="Path_5778" data-name="Path 5778" d="M54.776,30h-.508a1.6,1.6,0,0,1-1.22-.61.254.254,0,0,1,.407-.305h0a1.242,1.242,0,0,0,.814.407h.508c.864,0,1.78-.458,1.78-1.271,0-.864-.61-1.271-1.78-1.271-.1,0-.2-.051-.2-.153a.227.227,0,0,1,0-.254,8.8,8.8,0,0,0,.966-4.424A3.2,3.2,0,0,0,53.2,18.814a.259.259,0,1,1,.1-.508,3.687,3.687,0,0,1,2.746,3.814,9.693,9.693,0,0,1-.864,4.322c1.17.1,1.881.763,1.881,1.78S56.1,30,54.776,30Zm-5.085,0h-.508a2.313,2.313,0,0,1-2.034-1.22A2.313,2.313,0,0,1,45.115,30h-.508c-1.322,0-2.288-.763-2.288-1.78,0-1.068.712-1.678,1.983-1.78l-.966-5.8a.259.259,0,1,1,.508-.1l.966,5.9h.305a.254.254,0,1,1,0,.509h-.508c-1.17,0-1.78.407-1.78,1.271,0,.814.915,1.271,1.78,1.271h.508a1.8,1.8,0,0,0,1.78-1.78V20.593a.254.254,0,1,1,.509,0v7.119a1.8,1.8,0,0,0,1.78,1.78h.508c.864,0,1.78-.458,1.78-1.271,0-.864-.61-1.271-1.78-1.271h-.508a.254.254,0,1,1,0-.509h.305l.966-5.9a.259.259,0,0,1,.508.1L50,26.441c1.271.1,1.983.712,1.983,1.78C51.98,29.237,51.013,30,49.691,30ZM40.03,30h-.508c-1.322,0-2.288-.763-2.288-1.78s.661-1.627,1.881-1.78a10.094,10.094,0,0,1-.864-4.322A3.687,3.687,0,0,1,41,18.305c.153-.051.254.051.305.2s-.051.254-.2.305a3.1,3.1,0,0,0-2.339,3.305,8.574,8.574,0,0,0,.966,4.424.227.227,0,0,1,0,.254c-.051.051-.153.153-.2.153-1.17,0-1.78.407-1.78,1.271,0,.814.915,1.271,1.78,1.271h.508a1.242,1.242,0,0,0,.814-.407.254.254,0,0,1,.407.305A1.6,1.6,0,0,1,40.03,30ZM37.488,19.322a.264.264,0,0,1-.2-.1c-.1-.153-2.085-3.2-1.017-5.847a.28.28,0,0,1,.254-.153.219.219,0,0,1,.2.2,5.166,5.166,0,0,0,2.39,3.864.262.262,0,0,1-.254.458,5.431,5.431,0,0,1-2.441-3.2,7.674,7.674,0,0,0,1.22,4.373.251.251,0,0,1-.051.356C37.59,19.322,37.539,19.322,37.488,19.322Zm9.661-.508c-4.932,0-6.864-1.78-6.864-6.356,0-3.763.915-7.525,2.9-9.661C42.217,1.831,40.641.508,40.03.508c-1.424,0-3.864,1.983-4.881,3.915a4.48,4.48,0,0,0-.458,1.932,1.8,1.8,0,0,0,1.78,1.78c.864,0,1.22-.559,1.627-1.17.051-.1.1-.153.153-.254l2.034-3.051a.254.254,0,0,1,.407.305L38.657,7.017c-.051.1-.1.153-.153.254A2.434,2.434,0,0,1,36.42,8.644a2.279,2.279,0,0,1-2.288-2.288,4.614,4.614,0,0,1,.559-2.136C35.759,2.085,38.4,0,39.98,0c.966,0,2.9,1.831,3.508,2.441a5.289,5.289,0,0,1,7.22,0C51.319,1.831,53.251,0,54.217,0c1.627,0,4.271,2.085,5.288,4.22a5.8,5.8,0,0,1,.559,2.136,2.279,2.279,0,0,1-2.288,2.288c-1.17,0-1.627-.712-2.136-1.424L53.454,3.966a.254.254,0,0,1,.407-.305l2.186,3.254c.458.661.814,1.22,1.678,1.22a1.8,1.8,0,0,0,1.78-1.78,5.356,5.356,0,0,0-.458-1.932C58.081,2.491,55.641.508,54.166.508c-.61,0-2.186,1.322-3.153,2.288,1.983,2.136,2.9,5.9,2.9,9.661C54.013,17.034,52.081,18.814,47.149,18.814Zm0-17.288c-4.373,0-6.356,5.492-6.356,10.932,0,4.271,1.729,5.847,6.356,5.847S53.5,16.729,53.5,12.458C53.5,7.017,51.522,1.525,47.149,1.525Zm2.034,14.237a2.438,2.438,0,0,1-2.034-1.322,2.438,2.438,0,0,1-2.034,1.322,1.378,1.378,0,0,1-1.22-.661.262.262,0,1,1,.458-.254c.2.356.763.356.814.356a2,2,0,0,0,1.78-1.525c-.864-.1-1.525-.61-1.525-1.271,0-.712.763-1.271,1.78-1.271s1.78.559,1.78,1.271c0,.661-.661,1.17-1.525,1.271a1.944,1.944,0,0,0,1.78,1.525s.61,0,.814-.356a.262.262,0,1,1,.458.254A1.62,1.62,0,0,1,49.183,15.763Zm-2.034-4.068c-.712,0-1.271.356-1.271.763s.559.763,1.271.763,1.271-.356,1.271-.763S47.861,11.695,47.149,11.695Zm2.288-3.051a.508.508,0,1,1,.508-.508A.48.48,0,0,1,49.437,8.644Zm-4.576,0a.508.508,0,1,1,.508-.508A.48.48,0,0,1,44.861,8.644Z" transform="translate(0)" fill="#323338"/>
  </g>
</svg>
