<svg xmlns="http://www.w3.org/2000/svg" xmlns:xlink="http://www.w3.org/1999/xlink" width="40" height="40" viewBox="0 0 40 40"><style>svg { stroke: none;}</style><defs><clipPath id="b"><rect width="40" height="40"/></clipPath></defs><g id="a" clip-path="url(#b)"><path d="M18.763,61H1.808A1.811,1.811,0,0,0,0,62.808V74.862A1.811,1.811,0,0,0,1.808,76.67H18.763a1.811,1.811,0,0,0,1.808-1.808V62.808A1.811,1.811,0,0,0,18.763,61Zm-.25,1.205-8.19,8.19-8.261-8.19ZM1.205,74.612V63.052l5.8,5.755Zm.852.852,5.809-5.809L9.9,71.674a.6.6,0,0,0,.85,0l1.985-1.985,5.777,5.777Zm17.308-.852-5.777-5.777,5.777-5.777Z" transform="translate(10.286 -49.572)"/></g></svg>