<svg xmlns="http://www.w3.org/2000/svg" width="15.769" height="12" viewBox="0 0 15.769 12"><style>svg { stroke: none;}</style><g transform="translate(0 -57.75)"><g transform="translate(0 57.75)"><path d="M13.843,57.75H1.928A1.93,1.93,0,0,0,0,59.678v8.144A1.93,1.93,0,0,0,1.928,69.75H13.84a1.93,1.93,0,0,0,1.928-1.928v-8.14A1.928,1.928,0,0,0,13.843,57.75Zm1.047,10.072a1.048,1.048,0,0,1-1.047,1.047H1.928A1.048,1.048,0,0,1,.881,67.822v-8.14a1.048,1.048,0,0,1,1.047-1.047H13.84a1.048,1.048,0,0,1,1.047,1.047v8.14Z" transform="translate(0 -57.75)"/><path d="M63.878,113.132l3.856-3.458a.441.441,0,0,0-.591-.656l-5.318,4.773-1.038-.927s-.007-.007-.007-.01a.651.651,0,0,0-.072-.062l-4.222-3.778a.441.441,0,1,0-.587.659l3.9,3.488L55.917,116.8a.442.442,0,0,0-.02.623.451.451,0,0,0,.323.14.441.441,0,0,0,.3-.117l3.945-3.69,1.07.956a.439.439,0,0,0,.587,0l1.1-.985,3.922,3.726a.442.442,0,0,0,.623-.016.442.442,0,0,0-.016-.623Z" transform="translate(-53.933 -107.233)"/></g></g></svg>