<svg xmlns="http://www.w3.org/2000/svg" xmlns:xlink="http://www.w3.org/1999/xlink" width="40" height="40" viewBox="0 0 40 40"><style>svg { stroke: none;}</style><defs><clipPath id="b"><rect width="40" height="40"/></clipPath></defs><g id="a" clip-path="url(#b)"><g transform="translate(8 12)"><g transform="translate(0 0)"><path d="M24.545,6H.571A.566.566,0,0,0,0,6.563V23.438A.566.566,0,0,0,.571,24H24.545a.567.567,0,0,0,.571-.562V6.563A.567.567,0,0,0,24.545,6Zm-.571,15.514L16.9,14.547l-.807.8,7.644,7.533H1.376L9.02,15.342l-.807-.8L1.142,21.514V7.125H23.975Z" transform="translate(0 -6)" fill="#d31e49"/></g><g transform="translate(1.142 1.125)"><path d="M23.679,8,13.416,18.113,3.154,8H2v.454L13.013,19.306a.576.576,0,0,0,.807,0L24.833,8.454V8Z" transform="translate(-2 -8)" fill="#d31e49"/></g></g></g></svg>