<svg xmlns="http://www.w3.org/2000/svg" xmlns:xlink="http://www.w3.org/1999/xlink" width="40" height="40" viewBox="0 0 40 40"><defs><clipPath id="b"><rect width="40" height="40"/></clipPath></defs><g id="a" clip-path="url(#b)"><g transform="translate(-198.75 -673.62)"><path d="M204.727,684.806H216.67a3.209,3.209,0,0,0,6.114,0h9.99a.977.977,0,1,0,0-1.953h-9.99a3.209,3.209,0,0,0-6.114,0H204.727a.977.977,0,1,0,0,1.953Z" transform="translate(0 0)"/><path d="M232.773,717.352H214.412a3.209,3.209,0,0,0-6.114,0h-3.571a.977.977,0,0,0,0,1.954H208.3a3.209,3.209,0,0,0,6.114,0h18.362a.977.977,0,0,0,0-1.954Z" transform="translate(0 -24.872)"/><path d="M232.773,751.853h-6.78a3.209,3.209,0,0,0-6.114,0H204.727a.977.977,0,1,0,0,1.953h15.152a3.209,3.209,0,0,0,6.114,0h6.78a.977.977,0,1,0,0-1.953Z" transform="translate(0 -49.744)"/></g></g></svg>