<svg xmlns="http://www.w3.org/2000/svg" width="16" height="16.014" viewBox="0 0 16 16.014"><style>svg { stroke: none;}</style><g transform="translate(-201 -697)"><path d="M8.046,22.02a.566.566,0,1,0,1.132,0V10.811A2.145,2.145,0,1,0,8.06,10.8V22.02ZM7.6,8.74A1.008,1.008,0,1,1,8.612,9.748,1.013,1.013,0,0,1,7.6,8.74Z" transform="translate(194.4 719.514) rotate(-90)" /><path d="M51.126,6.6a.56.56,0,0,0-.566.566v5.826a2.136,2.136,0,0,0,0,4.114v4.928a.566.566,0,0,0,1.132,0V17.106a2.144,2.144,0,0,0,0-4.142v-5.8a.56.56,0,0,0-.566-.566Zm1.035,8.449a1.008,1.008,0,1,1-1.008-1.008A1.013,1.013,0,0,1,52.161,15.049Z" transform="translate(194.4 756.147) rotate(-90)" /><path d="M94.206,18.389V7.166a.566.566,0,1,0-1.132,0V18.389a2.14,2.14,0,1,0,1.132,0Zm-.552,3.065a1.008,1.008,0,1,1,1.008-1.008A1.013,1.013,0,0,1,93.654,21.454Z" transform="translate(194.4 792.779) rotate(-90)" /></g></svg>