<svg xmlns="http://www.w3.org/2000/svg" width="18.423" height="22.645" viewBox="0 0 18.423 22.645"><style>svg { stroke: none;}</style><g transform="translate(-9.609 -7.847)"><path d="M25,19.889a5.146,5.146,0,0,1,2.451-4.318,5.268,5.268,0,0,0-4.15-2.244c-1.746-.183-3.439,1.045-4.329,1.045-.907,0-2.277-1.027-3.752-1a5.527,5.527,0,0,0-4.651,2.837c-2.011,3.482-.511,8.6,1.416,11.414.964,1.378,2.09,2.918,3.564,2.863,1.442-.06,1.981-.92,3.722-.92,1.725,0,2.23.92,3.734.885,1.548-.025,2.523-1.384,3.453-2.776a11.4,11.4,0,0,0,1.579-3.216A4.973,4.973,0,0,1,25,19.889Z"/><path d="M22.156,11.477a5.067,5.067,0,0,0,1.159-3.63A5.155,5.155,0,0,0,19.98,9.573a4.821,4.821,0,0,0-1.189,3.5A4.263,4.263,0,0,0,22.156,11.477Z"/></g></svg>