<svg xmlns="http://www.w3.org/2000/svg" xmlns:xlink="http://www.w3.org/1999/xlink" width="40" height="40" viewBox="0 0 40 40"><style>svg { stroke: none;}</style><defs><clipPath id="b"><rect width="40" height="40"/></clipPath></defs><g id="a" clip-path="url(#b)"><path d="M83.232,0A7.234,7.234,0,0,0,77.08,11.035l5.741,9.251a.6.6,0,0,0,.512.285h0a.6.6,0,0,0,.512-.293l5.595-9.341A7.234,7.234,0,0,0,83.232,0ZM88.41,10.319l-5.086,8.492L78.1,10.4a6.031,6.031,0,1,1,10.306-.081Z" transform="translate(-63.429 10.286)"/><path d="M169.616,90a3.616,3.616,0,1,0,3.616,3.616A3.62,3.62,0,0,0,169.616,90Zm0,6.035a2.419,2.419,0,1,1,2.415-2.419A2.421,2.421,0,0,1,169.616,96.035Z" transform="translate(-149.813 -76.286)"/></g></svg>