<svg xmlns="http://www.w3.org/2000/svg" xmlns:xlink="http://www.w3.org/1999/xlink" width="40" height="40" viewBox="0 0 40 40"><style>svg { stroke: none;}</style><defs><clipPath id="b"><rect width="40" height="40"/></clipPath></defs><g id="a" clip-path="url(#b)"><g transform="translate(8 10)"><path d="M31.776,43.052h12.6a.876.876,0,0,0,0-1.752h-12.6a.876.876,0,1,0,0,1.752Z" transform="translate(-25.667 -35.64)" fill="#d31e49"/><path d="M31.776,62.852h12.6a.876.876,0,1,0,0-1.752h-12.6a.876.876,0,1,0,0,1.752Z" transform="translate(-25.667 -51.21)" fill="#d31e49"/><path d="M7.276,32.1H10.1v2.884a.879.879,0,0,0,.491.79.838.838,0,0,0,.384.085.935.935,0,0,0,.534-.171l4.7-3.567h14.14a.866.866,0,0,0,.876-.876V15.676s-.384-.876-.876-.876H7.276a.866.866,0,0,0-.876.876v15.55A.88.88,0,0,0,7.276,32.1Zm.876-15.55h21.3v13.8H15.905a.935.935,0,0,0-.534.171l-3.524,2.691V31.226a.866.866,0,0,0-.876-.876H8.152Z" transform="translate(-6.4 -14.8)" fill="#d31e49"/></g></g></svg>