<svg xmlns="http://www.w3.org/2000/svg" xmlns:xlink="http://www.w3.org/1999/xlink" width="40" height="40" viewBox="0 0 40 40"><style>svg { stroke: none;}</style><defs><clipPath id="b"><rect width="40" height="40"/></clipPath></defs><g id="a" clip-path="url(#b)"><path d="M109.739,18.97V1.6a1.6,1.6,0,0,0-1.6-1.6h-9.2a1.6,1.6,0,0,0-1.6,1.6V18.974a1.6,1.6,0,0,0,1.6,1.6h9.2A1.605,1.605,0,0,0,109.739,18.97ZM98.38,3.7h10.326V15.394H98.38Zm.567-2.673h9.2a.568.568,0,0,1,.567.567V2.673H98.38V1.6A.568.568,0,0,1,98.947,1.03ZM98.38,18.97V16.419h10.326V18.97a.568.568,0,0,1-.567.567H98.947A.568.568,0,0,1,98.38,18.97Z" transform="translate(-83.636 10.286)"/></g></svg>