<svg xmlns="http://www.w3.org/2000/svg" width="106.003" height="67.377" viewBox="0 0 106.003 67.377"><g transform="translate(-157 -289)"><path d="M159.869,163.951a4.21,4.21,0,1,1,4.21-4.21A4.214,4.214,0,0,1,159.869,163.951Zm0-6.711a2.5,2.5,0,1,0,2.5,2.5A2.5,2.5,0,0,0,159.869,157.24Z" transform="translate(75.925 192.426)" fill="#323338" opacity="0.43"/><path d="M159.264,162.742a3.6,3.6,0,1,1,3.6-3.6A3.609,3.609,0,0,1,159.264,162.742Zm0-5.747a2.142,2.142,0,1,0,2.142,2.142A2.144,2.144,0,0,0,159.264,156.995Z" transform="translate(24.925 185.426)" fill="#323338" opacity="0.43"/><path d="M176.022,118.837a5.905,5.905,0,0,1-5.9-5.9.854.854,0,1,0-1.708,0,5.905,5.905,0,0,1-5.9,5.9.854.854,0,1,0,0,1.708,5.9,5.9,0,0,1,5.9,5.9.854.854,0,0,0,1.708,0,5.9,5.9,0,0,1,5.9-5.9.854.854,0,0,0,0-1.708Zm-6.752,4.118A7.642,7.642,0,0,0,166,119.691a7.652,7.652,0,0,0,3.265-3.265,7.652,7.652,0,0,0,3.265,3.265A7.642,7.642,0,0,0,169.27,122.955Z" transform="translate(86.127 205.492)" fill="#323338" opacity="0.43"/><path d="M70.816,99.546a5.906,5.906,0,0,1-5.9-5.9.854.854,0,1,0-1.708,0,5.905,5.905,0,0,1-5.9,5.9.854.854,0,0,0,0,1.708,5.9,5.9,0,0,1,5.9,5.9.854.854,0,1,0,1.708,0,5.906,5.906,0,0,1,5.9-5.9.854.854,0,1,0,0-1.708Zm-6.753,4.118A7.646,7.646,0,0,0,60.8,100.4a7.649,7.649,0,0,0,3.264-3.265,7.66,7.66,0,0,0,3.265,3.265A7.657,7.657,0,0,0,64.063,103.664Z" transform="translate(100.543 217.417)" fill="#323338" opacity="0.43"/><path d="M104.573,98.132a4.21,4.21,0,1,1,4.21-4.21A4.213,4.213,0,0,1,104.573,98.132Zm0-6.711a2.5,2.5,0,1,0,2.5,2.5A2.5,2.5,0,0,0,104.573,91.421Z" transform="translate(122.646 199.287)" fill="#323338" opacity="0.43"/><g transform="translate(112 36)"><circle cx="12" cy="12" r="12" transform="translate(100 283)" fill="#d2d2d2"/><g transform="translate(99.196 282.491)"><path d="M290.573,223.575a14.088,14.088,0,1,0,14.088,14.088A14.1,14.1,0,0,0,290.573,223.575Zm0,25.614A11.526,11.526,0,1,1,302.1,237.663,11.54,11.54,0,0,1,290.573,249.189Z" transform="translate(-276.485 -223.575)" fill="#323338"/></g><g transform="translate(66 262)"><g transform="translate(0 0)"><path d="M53.253,64.958A35.527,35.527,0,0,0,26.793,52.909,35.527,35.527,0,0,0,.334,64.958a1.28,1.28,0,1,0,1.9,1.721A33.005,33.005,0,0,1,26.793,55.47,33.005,33.005,0,0,1,51.357,66.679a1.28,1.28,0,1,0,1.9-1.721Z" transform="translate(0 -52.909)" fill="#323338"/></g></g><g transform="translate(72.585 272.31)"><g transform="translate(0 0)"><path d="M91.7,144.751c-11.088-9-26.792-7.7-36.526,3a1.282,1.282,0,0,0,1.9,1.726c8.95-9.849,22.835-11,33.017-2.743a1.28,1.28,0,0,0,1.614-1.988Z" transform="translate(-54.843 -138.775)" fill="#323338"/></g></g><g transform="translate(79.17 282.519)"><path d="M130.536,225.238a18.058,18.058,0,0,0-20.514,4.587,1.282,1.282,0,0,0,.948,2.144,1.272,1.272,0,0,0,.948-.423,15.483,15.483,0,0,1,17.6-3.96,1.281,1.281,0,0,0,1.022-2.349Z" transform="translate(-109.69 -223.809)" fill="#323338"/></g><g transform="translate(86.389 292.737)"><g transform="translate(0 0)"><path d="M181.088,318.442a16.516,16.516,0,0,1-1.025-5.691c0-.566.031-1.122.085-1.675a1.279,1.279,0,0,0-.607-1.219,6.4,6.4,0,1,0,1.263,9.92A1.282,1.282,0,0,0,181.088,318.442Z" transform="translate(-169.818 -308.908)" fill="#323338"/></g></g></g><g transform="translate(214.948 322.246)"><path d="M328.027,273.331,309.918,255.22a1.281,1.281,0,1,0-1.811,1.811l18.109,18.112a1.281,1.281,0,0,0,1.811-1.811Z" transform="translate(-307.732 -254.845)" fill="#323338"/></g></g></svg>