<svg xmlns="http://www.w3.org/2000/svg" xmlns:xlink="http://www.w3.org/1999/xlink" width="40" height="40" viewBox="0 0 40 40"><style>svg { stroke: none;}</style><defs><clipPath id="b"><rect width="40" height="40"/></clipPath></defs><g id="a" clip-path="url(#b)"><path d="M15.147,0H5.424A5.43,5.43,0,0,0,0,5.424V6.629A1.81,1.81,0,0,0,1.808,8.437H4.219A1.81,1.81,0,0,0,6.027,6.629V5.424a.6.6,0,0,1,.6-.6h7.312a.6.6,0,0,1,.6.6V6.629a1.81,1.81,0,0,0,1.808,1.808h2.411a1.81,1.81,0,0,0,1.808-1.808V5.424A5.43,5.43,0,0,0,15.147,0ZM4.821,6.629a.6.6,0,0,1-.6.6H1.808a.6.6,0,0,1-.6-.6v-.6H4.821Zm9.121-3.013H6.629a1.811,1.811,0,0,0-1.7,1.205H1.249A4.225,4.225,0,0,1,5.424,1.205h9.723a4.225,4.225,0,0,1,4.176,3.616H15.646A1.811,1.811,0,0,0,13.942,3.616Zm5.424,3.013a.6.6,0,0,1-.6.6H16.353a.6.6,0,0,1-.6-.6v-.6h3.616Z" transform="translate(9.688 10.286)"/><path d="M47.931,160.858c-3.283-7.982-3.086-7.511-3.121-7.569a1.817,1.817,0,0,0-1.55-.878H42.134v-.6A1.81,1.81,0,0,0,40.326,150H37.835a1.81,1.81,0,0,0-1.808,1.808v.6H34.9a1.8,1.8,0,0,0-1.591.959l-3.079,7.486A3,3,0,0,0,30,162.012v.724a1.81,1.81,0,0,0,1.808,1.808H46.353a1.81,1.81,0,0,0,1.808-1.808v-.724A3,3,0,0,0,47.931,160.858Zm-10.7-9.05a.6.6,0,0,1,.6-.6h2.491a.6.6,0,0,1,.6.6v.6h-3.7Zm9.723,10.929a.6.6,0,0,1-.6.6H31.808a.6.6,0,0,1-.6-.6v-.724a1.8,1.8,0,0,1,.139-.7l3.06-7.439a.606.606,0,0,1,.5-.261H43.26a.606.606,0,0,1,.5.261l3.061,7.441a1.8,1.8,0,0,1,.139.694Z" transform="translate(-19.107 -133.687)"/><path d="M170.616,270a3.616,3.616,0,1,0,3.616,3.616A3.62,3.62,0,0,0,170.616,270Zm0,6.027a2.411,2.411,0,1,1,2.411-2.411A2.413,2.413,0,0,1,170.616,276.027Z" transform="translate(-150.603 -248.866)"/></g></svg>